<svg width="86" height="194" viewBox="0 0 86 194" fill="none" xmlns="http://www.w3.org/2000/svg">
<path d="M34.0972 159.228C34.0972 159.228 36.0285 159.453 37.4331 161.567C39.2327 164.267 39.8472 167.146 38.706 169.531C37.5648 171.87 37.3014 172.455 37.082 173.715C36.9503 174.48 37.6526 177.134 37.872 177.719C38.2232 178.934 37.3014 179.069 37.3014 179.069C37.6965 179.924 37.2575 180.509 37.0381 180.509C35.9407 180.374 35.2823 176.999 34.5801 175.56C34.5801 175.56 35.6774 179.519 35.853 181.409C35.9846 183.163 34.3167 183.028 33.8339 181.139C33.8339 181.139 32.4732 180.644 31.9026 178.889C31.332 177.134 30.4541 173.625 30.7613 171.465C31.0686 169.306 32.2098 164.267 32.2098 164.267L34.0972 159.228Z" fill="#FAC2A8"/>
<path d="M32.7366 167.278C33 168.043 33.2195 168.853 33.4389 169.663C33.6145 170.473 33.7901 171.282 33.834 172.137C33.834 172.362 33.834 172.542 33.7901 172.767C33.7462 172.947 33.7462 173.127 33.7901 173.352C33.834 173.712 34.0095 174.072 34.229 174.342C34.4924 174.612 34.8435 174.747 35.1069 174.567C35.2385 174.477 35.3702 174.342 35.4141 174.207C35.5019 174.072 35.5458 173.892 35.5458 173.712C35.5897 173.307 35.5458 172.902 35.5458 172.497C35.5458 172.092 35.5458 171.642 35.6336 171.237C35.7653 170.383 36.1164 169.573 36.687 168.943C36.9504 168.628 37.2576 168.358 37.4771 167.998C37.6965 167.683 37.8721 167.323 37.9599 166.918C38.1794 166.153 38.0477 165.298 37.6527 164.579C38.1355 165.253 38.3549 166.108 38.1794 166.963C38.0477 167.818 37.4771 168.538 36.9504 169.123C36.4675 169.753 36.1603 170.473 36.0286 171.282C35.8969 172.047 35.9847 172.857 35.9408 173.712C35.8969 173.937 35.8969 174.162 35.7653 174.387C35.6336 174.567 35.5019 174.792 35.2824 174.882C35.063 175.017 34.7996 175.017 34.5801 174.927C34.3607 174.837 34.1412 174.702 34.0095 174.567C33.7023 174.252 33.5267 173.802 33.4828 173.352C33.4389 173.127 33.4828 172.902 33.5267 172.677C33.5706 172.497 33.5706 172.272 33.5706 172.092C33.5706 171.282 33.4389 170.473 33.3072 169.663C33.1317 168.898 32.9122 168.088 32.7366 167.278Z" fill="#DC918B"/>
<path d="M33.0439 173.177C33.0878 173.897 33.1317 174.572 33.2195 175.246C33.3073 175.921 33.4829 176.596 33.7023 177.226C33.7901 177.541 33.9657 177.856 34.0974 178.171C34.2291 178.486 34.4046 178.756 34.5802 179.116C34.7119 179.431 34.7997 179.881 34.6241 180.196C34.4924 180.556 34.1852 180.78 33.834 180.915C34.1413 180.735 34.4046 180.466 34.4924 180.151C34.5802 179.836 34.4924 179.521 34.3607 179.206C34.2291 178.936 34.0096 178.621 33.834 178.306C33.6584 177.991 33.5268 177.676 33.3951 177.316C33.1317 176.641 32.9562 175.966 32.8684 175.246C32.7367 174.617 32.7367 173.852 33.0439 173.177Z" fill="#DC918B"/>
<path d="M36.379 174.031C36.3351 174.436 36.379 174.841 36.5107 175.201C36.5546 175.381 36.6863 175.516 36.7741 175.696C36.8619 175.875 36.9496 176.1 36.9935 176.28C37.213 177.09 37.3447 177.9 37.3886 178.71C37.1691 177.945 36.9935 177.135 36.6863 176.415C36.5985 176.235 36.5107 176.055 36.4229 175.92C36.3351 175.741 36.2474 175.516 36.2474 175.291C36.2035 174.841 36.2474 174.436 36.379 174.031Z" fill="#DC918B"/>
<path d="M32.1227 159.226L31.0254 164.175C31.0254 164.175 36.9509 163.546 40.4624 167.55L41.428 160.261C41.4719 160.261 39.1456 158.191 32.1227 159.226Z" fill="#EF3F54"/>
<path d="M32.1222 159.229C32.1222 159.229 30.2787 153.11 32.0783 148.656C33.878 144.201 36.4676 124.405 38.1356 117.026C39.0134 113.157 42.6566 108.028 44.8512 107.218C46.6069 106.543 47.0898 125.8 47.4409 128.274C45.2902 134.618 41.9104 143.707 41.9104 144.516C41.9104 151.535 38.6623 161.029 38.6623 161.029C38.6623 161.029 35.4581 159.724 32.1222 159.229Z" fill="#BD1A3B"/>
<path d="M40.461 142.039L39.0565 173.039C39.0565 173.039 48.8446 178.303 56.5698 178.663C62.1442 206.873 60.8274 208.807 61.3102 211.507C61.5736 212.857 63.0221 235.263 62.8904 236.073C62.7148 236.882 62.5831 238.277 62.8026 239.222C62.9782 239.942 62.5392 243.676 62.5392 243.676C62.5392 243.676 64.7778 244.351 67.6308 244.666C70.4839 244.981 74.1709 243.946 75.2682 243.946C75.2682 243.946 74.961 241.967 75.2682 240.707C75.5316 239.672 74.6098 238.367 74.961 237.242C75.2682 236.118 75.7071 230.134 75.7071 223.7C75.7071 216.006 75.2682 209.707 74.4781 207.413C74.7854 186.716 74.522 174.658 74.4781 173.579C74.3465 168.764 73.7319 165.165 73.7319 163.86C73.7319 162.556 72.7663 141.814 72.7663 141.814L40.461 142.039Z" fill="#474E64"/>
<path d="M51.7839 167.057C51.9155 168.362 52.0472 169.712 52.1789 171.062C52.3106 172.411 52.3984 173.716 52.4861 175.066V175.336H52.2228H49.5892H49.3697V175.111C49.3258 173.941 49.282 172.771 49.2381 171.602C49.1942 170.432 49.1942 169.262 49.1503 168.092L49.282 168.227C48.6236 168.137 48.0091 168.047 47.3507 167.957H47.3068V167.912C47.3945 167.552 47.5262 167.237 47.614 166.877C47.5262 167.237 47.4823 167.597 47.3946 167.912L47.3507 167.822C48.0091 167.867 48.6674 167.912 49.282 167.957H49.4136V168.092C49.5014 169.262 49.5892 170.432 49.677 171.557C49.7648 172.726 49.8087 173.896 49.8965 175.021L49.6331 174.796H52.2667L52.0472 175.066C52.0033 173.716 51.9155 172.411 51.9155 171.062C51.7839 169.712 51.7839 168.407 51.7839 167.057Z" fill="#343948"/>
<path d="M74.4788 160.531L74.4349 164.13C74.4349 164.13 62.101 166.425 59.9502 166.56C57.7994 166.65 56.5704 162.871 56.5704 162.871L58.809 160.756L74.4788 160.531Z" fill="#EF3F54"/>
<path d="M38.88 159.544L38.4411 163.144C38.4411 163.144 46.2541 165.798 48.3609 166.158C50.4678 166.563 52.2235 163.009 52.2235 163.009L50.2922 160.624L38.88 159.544Z" fill="#EF3F54"/>
<path d="M39.0563 172.996C39.0563 172.996 40.1097 198.236 40.1097 199.361C40.1097 200.486 40.8998 237.244 40.5925 238.054C40.2853 238.864 39.8025 242.868 39.8025 242.868C39.8025 242.868 43.0944 244.218 45.2452 244.353C47.2204 244.488 48.186 244.623 53.5849 243.318C53.1459 239.989 53.1898 236.254 53.1898 235.13C53.1898 234.005 54.3311 221.182 54.3311 219.382C54.3311 217.583 55.2528 207.145 54.1555 202.645C53.8043 201.296 55.1211 178.485 55.1211 178.485C55.1211 178.485 47.3521 177.135 39.0563 172.996Z" fill="#343948"/>
<path d="M38.1343 164.31V168.314C38.1343 168.314 43.7965 172.543 59.9492 171.733C76.1018 170.923 74.785 169.979 74.785 169.979L74.4778 163.185L38.1343 164.31Z" fill="#31374C"/>
<path d="M75.3557 108.789C75.3557 108.789 72.8977 107.619 68.2012 106.269C65.1286 105.414 62.539 104.829 59.1153 104.829C53.3653 104.784 46.7814 106.584 44.9378 107.169C43.0066 107.799 40.8119 114.818 40.373 122.286C40.0218 128.09 39.3195 136.594 38.7928 146.582C38.4856 152.116 36.5104 161.024 38.1783 164.309C58.6764 170.743 74.5218 164.129 74.5218 164.129C76.7603 159.855 74.6095 154.321 76.6725 129.53C77.6382 117.427 75.3557 108.789 75.3557 108.789Z" fill="#BD1A3B"/>
<path d="M44.8934 107.216C44.3666 107.441 44.0155 107.936 43.7521 108.386C43.4449 108.881 43.2254 109.376 43.006 109.916C42.567 110.951 42.2598 112.03 41.9525 113.155C41.3819 115.36 41.0308 117.564 40.7674 119.814C40.6357 120.939 40.5918 122.064 40.5041 123.188L40.2846 126.608C40.1529 128.857 39.9773 131.152 39.8018 133.402C39.4506 137.946 39.1434 142.49 38.7044 146.989C38.3094 151.534 37.8705 156.033 37.3438 160.577L39.275 133.357L39.7579 126.563L39.9773 123.144C40.0651 122.019 40.109 120.849 40.2846 119.724C40.5479 117.475 40.9869 115.225 41.6453 113.02C41.9525 111.94 42.3476 110.861 42.8304 109.826C43.0499 109.331 43.3571 108.791 43.6644 108.341C43.9716 107.846 44.3666 107.396 44.8934 107.216Z" fill="#E0363C"/>
<path d="M64.8212 91.6929L51.4777 92.0978C51.4777 92.0978 52.1361 98.9815 52.18 108.43C52.18 110.229 53.1457 112.749 53.1457 112.749C53.1457 112.749 58.9395 111.984 64.8651 105.28C64.4262 103.526 64.8212 91.6929 64.8212 91.6929Z" fill="#DC918B"/>
<path d="M51.8282 166.653C50.3359 145.687 54.3301 116.892 54.6374 114.778L52.9694 112.843L53.3645 112.483L55.208 114.598V114.733C55.1641 115.047 50.8626 145.012 52.3988 166.608L51.8282 166.653Z" fill="#E0363C"/>
<path d="M27.0296 70.4141C27.0296 70.4141 23.5182 58.6262 18.1632 63.6653C12.8083 68.7044 20.5334 84.0917 29.1365 80.1774C29.1365 80.2224 31.1556 78.4677 27.0296 70.4141Z" fill="#F7AB8D"/>
<path d="M15.0479 26.9082C8.5517 28.9328 11.8437 41.7106 13.1605 45.085C18.0326 57.6828 18.9982 68.8858 23.212 72.8901C23.212 72.8901 25.6261 23.6238 15.0479 26.9082Z" fill="#2B2E3A"/>
<path d="M83.1242 67.4873C83.0803 68.0272 81.7196 82.1097 73.3799 80.625L74.0383 71.8515L83.1242 67.4873Z" fill="#2B2E3A"/>
<path d="M74.6115 21.598C74.6115 21.598 25.4513 15.4791 18.1211 30.3265C12.3711 41.9344 18.9551 53.1374 22.1154 67.6699C24.4856 78.5129 24.8807 86.1166 25.9341 87.9163C30.499 96.0148 42.1306 103.214 47.5733 103.034C59.6 102.629 69.9149 92.2355 73.6897 84.6319C75.7966 80.3126 76.3672 67.1749 75.3576 51.7427C74.5237 38.515 76.6744 26.5472 74.6115 21.598Z" fill="#FAC2A8"/>
<path d="M52.8125 54.1366C53.6413 53.9503 54.1699 53.1302 53.9933 52.3049C53.8167 51.4797 53.0016 50.9618 52.1729 51.1481C51.3441 51.3345 50.8154 52.1546 50.9921 52.9798C51.1687 53.8051 51.9837 54.323 52.8125 54.1366Z" fill="#31374C"/>
<path d="M52.9858 52.3211C53.2213 52.2625 53.366 52.0195 53.3089 51.7783C53.2518 51.5372 53.0145 51.3892 52.779 51.4478C52.5434 51.5064 52.3988 51.7495 52.4559 51.9906C52.513 52.2318 52.7502 52.3797 52.9858 52.3211Z" fill="white"/>
<path opacity="0.2" d="M23.9577 64.0234C23.9577 65.1032 25.7134 65.958 27.8642 65.913C30.0149 65.868 31.7267 64.9682 31.7267 63.8884C31.7267 62.8086 29.971 61.9538 27.8203 61.9988C25.6695 62.0438 23.9577 62.9436 23.9577 64.0234Z" fill="#EF3F54"/>
<path opacity="0.2" d="M50.9958 60.245C51.4786 61.3698 53.7172 61.4598 55.9557 60.38C58.1943 59.3452 59.5989 57.5905 59.116 56.4657C58.6332 55.3409 56.3947 55.2509 54.1561 56.3307C51.8737 57.3655 50.4691 59.1202 50.9958 60.245Z" fill="#EF3F54"/>
<path d="M28.5423 58.993C29.3711 58.8066 29.8998 57.9866 29.7231 57.1613C29.5465 56.3361 28.7315 55.8182 27.9027 56.0046C27.0739 56.191 26.5453 57.011 26.7219 57.8362C26.8985 58.6615 27.7136 59.1794 28.5423 58.993Z" fill="#31374C"/>
<path d="M28.7157 57.1737C28.9512 57.1151 29.0959 56.872 29.0388 56.6309C28.9817 56.3897 28.7444 56.2417 28.5088 56.3004C28.2733 56.359 28.1286 56.602 28.1857 56.8432C28.2428 57.0843 28.4801 57.2323 28.7157 57.1737Z" fill="white"/>
<path d="M19.6132 48.2312C20.9739 46.2066 22.6857 44.5868 26.3727 44.0469C28.304 44.0019 30.3231 43.777 28.3918 41.9773C25.0998 39.2778 17.8574 43.822 17.5941 49.221C17.2429 51.5606 18.867 49.7159 19.6132 48.2312Z" fill="#2B2E3A"/>
<path d="M56.3071 41.2145C54.4636 39.5948 52.4007 38.515 48.7137 38.9649C46.8262 39.4149 44.8511 39.7748 46.2556 37.5252C48.7575 34.0159 56.8778 36.5354 58.5018 41.6195C59.4675 43.824 57.4484 42.4743 56.3071 41.2145Z" fill="#2B2E3A"/>
<path opacity="0.6" d="M41.3848 43.2385C41.3848 43.2385 38.5757 47.4228 32.1234 48.1877C32.1234 48.1877 38.6196 57.681 35.4154 70.8637C35.4154 70.8637 42.4822 74.0581 47.6176 67.5792C47.5738 67.5792 41.0776 56.4212 41.3848 43.2385Z" fill="url(#paint0_linear)"/>
<path d="M73.2049 63.7532C68.64 56.3745 70.4835 48.3659 65.5675 40.5823C61.8804 34.8234 61.0904 24.3852 63.2411 20.7859C63.2411 20.7859 76.014 16.4217 76.7163 16.8266C80.8861 19.2561 86.5483 31.9889 84.3098 57.9042L73.2049 63.7532Z" fill="#2B2E3A"/>
<path d="M74.0827 60.38C74.0827 60.38 75.3117 52.9563 81.6762 55.0709C88.0407 57.2305 88.743 76.0823 74.3461 72.9778C74.3461 72.9778 73.0293 68.1186 74.0827 60.38Z" fill="#FAC2A8"/>
<path d="M82.3354 59.8412C81.5893 59.4363 80.7114 59.1663 79.8774 59.2113C79.0435 59.2113 78.2534 59.6613 77.7706 60.3361C77.2878 61.011 76.9805 61.7759 76.761 62.5857C76.5416 63.3956 76.4538 64.2505 76.366 65.0603L76.0588 64.7904C76.8927 64.6554 77.7267 64.7454 78.4729 65.1953C79.219 65.6002 79.658 66.4101 79.7458 67.2199C79.8335 67.6249 79.7458 68.0298 79.658 68.4347C79.5263 68.8397 79.2629 69.1546 78.9557 69.4245C78.3412 69.9195 77.595 70.2344 76.8049 70.3694C77.5511 70.1444 78.2534 69.7845 78.7801 69.2446C79.0435 68.9746 79.2629 68.6597 79.3507 68.3447C79.4385 67.9848 79.4824 67.6699 79.3946 67.3099C79.2629 66.59 78.8679 65.9601 78.2534 65.6452C77.6389 65.2853 76.8488 65.2403 76.1904 65.3753L75.8832 65.4202L75.9271 65.1053C76.0149 64.2504 76.1465 63.3956 76.366 62.5407C76.5855 61.6859 76.9366 60.831 77.5072 60.1562C78.0778 59.4363 78.9996 58.9864 79.9213 59.0314C80.7992 58.9414 81.6331 59.3013 82.3354 59.8412Z" fill="#DC918B"/>
<path d="M35.3704 70.8166C35.3704 70.8166 42.5689 79.275 47.5727 67.5322C47.5727 67.5772 42.7444 70.7266 35.3704 70.8166Z" fill="#DC918B"/>
<path d="M9.47451 20.9663C13.6443 15.4323 21.3695 4.45422 32.4745 2.96948C38.005 2.33959 38.5756 3.59937 38.5756 3.59937C38.005 2.78951 35.8542 0 35.8542 0C45.1157 3.01447 75.4897 -6.88379 76.6748 16.872C78.5183 18.4018 79.6595 19.6616 79.7912 20.2914C80.4496 23.3059 64.3408 39.953 64.4286 32.2593C64.7798 25.7355 65.1748 24.8806 62.5412 23.5309C57.7569 21.0563 50.295 21.9112 34.0985 29.5148C26.505 33.0692 12.3714 38.5133 0.520325 27.7151C0.520325 27.6702 5.30467 26.5004 9.47451 20.9663Z" fill="#2B2E3A"/>
<path d="M33.1329 79.5938C40.9897 84.408 37.6539 91.7417 47.9687 90.392C57.7569 88.0524 59.6443 71.0903 59.6443 71.0903C45.9496 83.9131 33.1329 79.5938 33.1329 79.5938Z" fill="#31374C"/>
<path d="M55.8694 83.417C48.232 84.6318 44.6767 87.6913 43.0526 90.2108C44.2377 90.6158 45.8179 90.7057 47.9686 90.4358C51.5679 89.5359 54.1137 86.7014 55.8694 83.417Z" fill="#F97A7A"/>
<path d="M33.1329 79.5939C34.8008 80.5837 35.942 81.7085 36.8199 82.8333C37.2149 83.3282 50.7779 82.7883 58.503 76.5794C59.337 73.4749 59.6004 71.0903 59.6004 71.0903C45.9496 83.9131 33.1329 79.5939 33.1329 79.5939Z" fill="white"/>
<path d="M34.1424 80.2692C34.4936 80.4942 34.8008 80.7641 35.1081 81.0341C35.4153 81.304 35.7226 81.574 36.0298 81.8889C36.3371 82.2039 36.6004 82.5188 36.8638 82.8338C37.9172 84.1385 38.7073 85.6233 39.5852 87.018C40.0241 87.7379 40.5069 88.4128 41.0775 88.9527C41.3848 89.2226 41.692 89.4476 42.0432 89.6725C42.3943 89.8525 42.7455 90.0325 43.1405 90.1225C43.3161 90.1675 43.5355 90.2124 43.7111 90.2574C43.8867 90.3024 44.1062 90.3474 44.2817 90.3474C44.6768 90.3924 45.0718 90.4374 45.4668 90.4374C45.8619 90.4374 46.2569 90.4374 46.6958 90.3924C47.0909 90.3924 47.4859 90.3024 47.881 90.2574C49.7245 89.8075 51.4363 88.7277 52.797 87.333C54.1577 85.9382 55.2111 84.2735 56.089 82.4738C56.9668 80.7191 57.6252 78.8295 58.1519 76.9398C58.4153 75.995 58.6786 75.0051 58.8542 74.0603C59.0737 73.0705 59.2493 72.1256 59.3809 71.1358L59.7321 71.3158L58.3714 72.5306C57.8886 72.9355 57.4496 73.3404 56.9668 73.7004C56.484 74.0603 56.0012 74.4652 55.4745 74.7802C54.9916 75.1401 54.4649 75.5 53.9382 75.815C53.4115 76.1299 52.8848 76.4449 52.358 76.7598C51.8313 77.0748 51.2607 77.3447 50.734 77.6147C50.1634 77.8846 49.6367 78.1096 49.0661 78.3345C48.4955 78.5595 47.9248 78.7845 47.3542 78.9644C46.7836 79.1444 46.213 79.3244 45.5985 79.5043C45.0279 79.6843 44.4134 79.8193 43.8428 79.9093C43.2283 80.0442 42.6577 80.1342 42.0432 80.2242C41.4287 80.3142 40.8581 80.3592 40.2436 80.4042C39.0146 80.4492 37.8294 80.4492 36.6004 80.3592C35.4153 80.2242 34.1863 80.0442 33.0451 79.6843C33.4401 79.8193 33.8352 80.0442 34.1424 80.2692ZM36.6882 80.1792C37.8733 80.2692 39.1023 80.2692 40.2875 80.1342C40.902 80.0892 41.4726 79.9993 42.0871 79.9093C42.7016 79.8193 43.2722 79.7293 43.8428 79.5943C44.4134 79.4593 45.0279 79.3244 45.5985 79.1444C46.1691 78.9644 46.7397 78.7845 47.3103 78.6045C47.881 78.3795 48.4516 78.1996 48.9783 77.9296C49.5489 77.7047 50.0756 77.4347 50.6023 77.1648C51.129 76.8948 51.6558 76.6248 52.1825 76.3099C52.7092 75.995 53.2359 75.725 53.7187 75.3651C54.2454 75.0501 54.7283 74.6902 55.2111 74.3303C55.6939 74.0153 56.1767 73.6104 56.6596 73.2504C57.1424 72.8905 57.5813 72.4856 58.0641 72.0806L59.4248 70.8659L59.8638 70.4609L59.776 71.0458C59.6443 72.0357 59.4687 73.0255 59.2931 74.0153C59.0737 75.0051 58.8542 75.995 58.5909 76.9398C58.0641 78.8744 57.3619 80.7641 56.484 82.5638C55.6061 84.3635 54.5088 86.0732 53.1042 87.5129C51.6997 88.9527 49.9439 90.0775 47.9687 90.4824C47.5737 90.5274 47.1348 90.5724 46.7397 90.5724C46.3447 90.6174 45.9058 90.6174 45.5107 90.6174C45.1157 90.6174 44.6768 90.5724 44.2817 90.5274C44.0623 90.5274 43.8867 90.4824 43.6672 90.4374C43.4478 90.3924 43.2722 90.3474 43.0527 90.2574C42.6577 90.1225 42.2626 89.9425 41.9115 89.7625C41.5604 89.5376 41.2092 89.3126 40.902 88.9977C40.2875 88.4128 39.8046 87.7379 39.3657 87.018C38.9268 86.2981 38.5317 85.5783 38.1367 84.8584C37.7417 84.1385 37.2588 83.4636 36.776 82.7888C36.5127 82.4738 36.2493 82.1589 35.9859 81.8439C35.7226 81.529 35.4153 81.259 35.1081 80.9891C34.8008 80.7191 34.4936 80.4492 34.1424 80.2242C33.8352 79.9543 33.484 79.7293 33.1329 79.5043C34.2741 79.9093 35.4592 80.0892 36.6882 80.1792Z" fill="#DC918B"/>
<path d="M56.747 71.0896C56.747 71.0896 57.142 70.9097 57.6688 70.8197C57.8004 70.7747 57.976 70.7747 58.1077 70.7297C58.2833 70.6847 58.4588 70.7297 58.5905 70.6847C58.7661 70.6847 58.9417 70.6847 59.1172 70.7297C59.205 70.7297 59.2928 70.7747 59.3806 70.7747L59.644 70.8647C59.8195 70.9097 59.9512 70.9997 60.1268 71.0896C60.2585 71.1796 60.434 71.3146 60.5657 71.4046C60.6974 71.5396 60.8291 71.6296 60.9608 71.7645C61.0485 71.8995 61.1802 71.9895 61.268 72.1245C61.3558 72.2145 61.4436 72.3494 61.5314 72.4394C61.6192 72.5294 61.663 72.6194 61.7069 72.7094C61.7947 72.8444 61.8825 72.9344 61.8825 72.9344C61.8825 72.9344 61.8386 72.8444 61.7947 72.6644C61.7069 72.4844 61.663 72.2595 61.4875 71.9895C61.3997 71.8545 61.3119 71.7195 61.2241 71.5396C61.0924 71.4046 61.0046 71.2696 60.873 71.0896C60.7413 70.9547 60.5657 70.8197 60.3901 70.6847C60.2146 70.5947 60.039 70.4597 59.8195 70.4147L59.5123 70.3248C59.4245 70.2798 59.2928 70.2798 59.205 70.2798C58.9856 70.2348 58.81 70.2798 58.5905 70.2798C58.415 70.3248 58.1955 70.3248 58.0199 70.3697C57.8443 70.4147 57.7127 70.4597 57.5371 70.5497C57.0543 70.7747 56.747 71.0896 56.747 71.0896Z" fill="#DC918B"/>
<path d="M48.8883 16.824C48.8883 16.824 51.1269 21.6831 44.9819 26.9022C38.0468 32.7512 29.1804 33.561 29.1804 33.561C29.1804 33.561 33.2185 30.5016 32.4723 27.1722C31.375 22.268 40.1536 14.1694 40.1536 14.1694L48.8883 16.824Z" fill="#2B2E3A"/>
<path d="M28.7432 3.86987C28.7432 3.86987 25.8024 4.72472 14.6974 11.6984C10.0448 14.6229 6.57722 9.7638 6.57722 9.7638C6.57722 9.7638 3.59249 21.7316 14.8291 20.4718C26.0657 19.1671 28.7432 3.86987 28.7432 3.86987Z" fill="#2B2E3A"/>
<path d="M64.6486 100.289C64.6486 100.289 59.3375 103.213 56.265 103.438C53.1925 103.663 53.807 111.132 53.5875 113.157C53.5875 113.157 60.7421 112.122 63.4635 110.007C66.1848 107.893 67.1505 106.228 67.1505 106.228C67.1505 106.228 67.5016 101.864 67.0627 100.064C66.931 99.614 64.6047 98.3542 64.6047 98.3542L64.6486 100.289Z" fill="#31374C"/>
<path d="M51.0844 102.625C51.0844 102.625 50.3821 102.94 49.8993 103.614C49.4164 104.289 50.5138 108.834 50.3382 109.958C50.1626 111.083 52.7084 112.928 52.7084 112.928L53.3229 112.388L52.9718 104.829C52.9718 104.334 52.6206 103.884 52.1378 103.749L52.0939 102.4L51.0844 102.625Z" fill="#31374C"/>
<path d="M53.9804 112.976L53.7171 112.886V112.256L53.0587 112.031L52.7514 112.526L52.4442 112.481L51.3907 115.046C51.2591 115.361 51.4346 115.721 51.7419 115.811L52.6636 116.126C52.9709 116.216 53.322 116.036 53.4098 115.676L53.9804 112.976Z" fill="#E1E4F4"/>
<path d="M62.2775 123.412C62.1459 123.412 62.0581 123.457 61.9703 123.592L60.6974 125.167L60.3462 123.547C60.3023 123.367 60.2146 123.322 60.1268 123.322C59.9951 123.322 59.9073 123.367 59.8195 123.502L58.6344 125.572L59.205 125.617L59.9951 124.177L60.3462 125.707L60.8291 125.752L61.9703 124.357L61.8825 125.842L62.3653 125.887L62.497 123.817C62.497 123.547 62.3653 123.457 62.2775 123.412Z" fill="white"/>
<path d="M58.0203 123.547L57.4058 125.481H57.9325L58.5471 123.547H58.0203Z" fill="white"/>
<path d="M57.0546 124.039C57.0985 123.769 56.9668 123.454 56.4401 123.454L55.4306 123.364L54.86 125.298L55.3867 125.343L55.6062 124.623H55.8695L56.3084 125.388L56.8791 125.433L56.3962 124.623C56.8352 124.533 57.0107 124.264 57.0546 124.039ZM56.0451 124.309L55.6501 124.264L55.8256 123.679L56.2207 123.724C56.4401 123.724 56.5279 123.859 56.484 124.039C56.484 124.219 56.3084 124.309 56.0451 124.309Z" fill="white"/>
<path d="M64.5607 125.928L65.0874 125.973L64.7363 124.129C64.6924 123.904 64.5607 123.859 64.429 123.859C64.3413 123.859 64.2535 123.904 64.1657 123.994L62.7611 125.793L63.2878 125.838L63.5512 125.433L64.4729 125.478L64.5607 125.928ZM63.7706 125.164L64.2974 124.489L64.429 125.208L63.7706 125.164Z" fill="white"/>
<path d="M66.7098 125.705C66.2708 125.66 66.0514 125.39 66.0953 125.075C66.183 124.67 66.5781 124.4 67.1048 124.445C67.2804 124.445 67.4559 124.49 67.6315 124.535L67.7632 124.131C67.6315 124.086 67.3682 124.041 67.1926 124.041C66.2708 123.996 65.7002 124.355 65.5685 124.985C65.4808 125.57 65.8319 125.974 66.6659 126.019C66.8414 126.019 66.9731 126.019 67.1926 126.019L67.3243 125.615C67.1048 125.705 66.9292 125.75 66.7098 125.705Z" fill="white"/>
<path d="M44.6748 143.254C44.6748 143.254 43.8409 142.489 43.7531 141.859C43.6653 141.23 44.2798 140.24 44.2798 140.24C44.2798 140.24 43.7531 139.475 44.0164 138.53C44.2798 137.54 44.8943 137.135 44.8943 137.135C44.8943 137.135 44.1042 136.37 44.3676 135.471C44.631 134.526 45.6405 134.211 46.9573 134.391C46.9573 134.391 54.3313 134.526 55.297 135.381C56.6576 136.55 58.4134 139.97 58.4134 139.97C59.6424 141.14 59.2473 146.404 59.2473 146.404L55.9115 145.954C54.9019 147.034 47.9668 146.944 47.3084 146.629C45.86 145.999 45.5088 145.909 44.5871 145.099C43.9726 144.514 44.6748 143.254 44.6748 143.254Z" fill="#FAC2A8"/>
<path d="M52.0498 128.767C51.9621 129.982 52.4449 130.612 53.8056 133.356C54.3762 134.526 55.9563 133.941 57.6243 138.396C58.0632 139.61 49.9869 136.191 50.4697 135.696C51.4353 134.616 49.1968 132.592 49.2407 130.117C49.2407 127.957 52.2254 126.023 52.0498 128.767Z" fill="#FAC2A8"/>
<path d="M46.1228 134.438C46.1228 134.438 50.0293 134.123 50.6877 135.563C51.3461 136.958 50.7316 137.678 49.9415 137.768C49.9415 137.768 50.556 138.262 50.4244 139.297C50.2927 140.332 49.4148 140.467 48.4931 140.602C47.5713 140.737 45.1133 140.332 45.1133 140.332L46.1228 134.438Z" fill="#FAC2A8"/>
<path d="M57.8012 138.485L63.4195 139.475L62.4977 147.213L57.055 146.358L57.8012 138.485Z" fill="#EF3F54"/>
<path d="M61.8807 139.206C63.3731 135.561 68.9914 137.901 71.8444 137.406C70.7471 132.997 70.2643 128.408 70.2643 128.408L68.2013 123.954C68.4208 113.695 71.2738 109.376 75.1364 108.521C75.1364 108.521 79.4818 110.276 80.7986 116.62C81.1936 118.554 85.2757 145.415 80.9303 149.284C77.0238 152.748 64.9971 151.984 61.3979 148.339L61.8807 139.206Z" fill="#BD1A3B"/>
<path d="M61.8795 139.206C62.055 138.756 62.2745 138.351 62.6256 138.036C62.9768 137.721 63.3718 137.496 63.8107 137.316C64.6886 137.001 65.6104 136.956 66.4882 136.956C67.41 137.001 68.2878 137.091 69.1657 137.136C70.0436 137.226 70.9653 137.271 71.7993 137.136L71.6237 137.406C71.2287 135.921 70.9214 134.437 70.6581 132.907C70.3947 131.422 70.1752 129.892 69.9997 128.363L70.0436 128.498C69.3413 127.013 68.639 125.483 67.9806 123.998L67.9367 123.954V123.909C67.9806 122.379 68.0684 120.849 68.2878 119.319C68.4634 117.79 68.7707 116.305 69.2535 114.82C69.3852 114.46 69.5169 114.1 69.6485 113.74C69.7802 113.38 69.9558 113.02 70.1314 112.705C70.3069 112.346 70.4825 112.031 70.702 111.716C70.9214 111.401 71.1409 111.086 71.4043 110.816C71.8871 110.231 72.4577 109.736 73.1161 109.331C73.7745 108.926 74.4768 108.656 75.223 108.521C74.5207 108.701 73.8184 109.016 73.2039 109.421C72.5894 109.871 72.0627 110.366 71.6237 110.951C70.702 112.121 70.1314 113.56 69.6924 114.955C69.2535 116.395 69.034 117.88 68.8585 119.409C68.6829 120.894 68.5951 122.424 68.5512 123.954L68.5073 123.819C69.2096 125.303 69.868 126.743 70.5264 128.228L70.5703 128.318V128.363C70.7459 129.847 70.9653 131.377 71.1848 132.862C71.4481 134.347 71.7554 135.831 72.0627 137.316L72.1065 137.541L71.8871 137.586C70.9653 137.721 70.0436 137.631 69.1657 137.496C68.2878 137.406 67.3661 137.271 66.4882 137.226C65.6104 137.181 64.6886 137.181 63.8546 137.406C62.9768 137.766 62.2306 138.351 61.8795 139.206Z" fill="#E0363C"/>
<path d="M80.9742 149.284C80.3597 149.869 79.5696 150.319 78.7796 150.634C77.9895 150.994 77.1116 151.219 76.2777 151.354C74.5658 151.669 72.8101 151.804 71.0983 151.714C69.3865 151.624 67.6307 151.399 65.9628 150.904C65.1288 150.679 64.2949 150.364 63.5048 149.959C62.7147 149.554 61.9685 149.105 61.3101 148.43L61.2224 148.34V148.25C61.2662 147.485 61.3101 146.72 61.354 145.955L61.5296 143.66C61.5735 142.896 61.6613 142.131 61.7052 141.366C61.7491 140.601 61.8369 139.836 61.8807 139.071C61.8807 139.836 61.8807 140.601 61.8369 141.366C61.8369 142.131 61.8369 142.896 61.793 143.66L61.7491 145.955C61.7052 146.72 61.7052 147.485 61.6613 148.25L61.5735 148.07C62.8025 149.24 64.4265 149.869 66.0506 150.319C67.6746 150.769 69.3865 151.039 71.0983 151.129C72.8101 151.219 74.5219 151.219 76.1899 150.949C77.9017 150.814 79.5696 150.364 80.9742 149.284Z" fill="#E0363C"/>
<defs>
<linearGradient id="paint0_linear" x1="38.0716" y1="43.6803" x2="41.7184" y2="71.4394" gradientUnits="userSpaceOnUse">
<stop stop-color="#FAC2A8"/>
<stop offset="0.2651" stop-color="#F7BCA5"/>
<stop offset="0.6038" stop-color="#EDAD9B"/>
<stop offset="0.981" stop-color="#DD938C"/>
<stop offset="1" stop-color="#DC918B"/>
</linearGradient>
</defs>
</svg>
